<?xml version="1.0" encoding="utf-8"?>
<!-- Generator: Adobe Illustrator 16.0.0, SVG Export Plug-In . SVG Version: 6.00 Build 0)  -->
<!DOCTYPE svg PUBLIC "-//W3C//DTD SVG 1.1//EN" "http://www.w3.org/Graphics/SVG/1.1/DTD/svg11.dtd">
<svg version="1.1" id="图层_1" xmlns="http://www.w3.org/2000/svg" xmlns:xlink="http://www.w3.org/1999/xlink" x="0px" y="0px"
	 width="128px" height="128px" viewBox="0 0 128 128" enable-background="new 0 0 128 128" xml:space="preserve">
<g>
	<path fill="#1E2A49" stroke="#1E2A49" stroke-miterlimit="10" d="M100.398,78.609c0.193,0,0.391,0,0.58,0c0,0.577,0,1.159,0,1.74
		c-2.117,0.408-4.427-0.265-6.373-0.868c-4.831-0.872-9.655-1.738-14.487-2.611c-0.242,2.6-3.525,5.485-5.503,6.374
		c-0.58,0.097-1.162,0.196-1.739,0.295c0,0.093,0,0.191,0,0.288c-0.191,0-0.386,0-0.577,0c0,0.098,0,0.19,0,0.29
		c-0.483,0-0.969,0-1.448,0c-0.651,0.191-3.066,0.86-4.059,0.577c0-0.099,0-0.191,0-0.291c-1.157-0.095-2.319-0.191-3.477-0.287
		c0-0.1,0-0.192,0-0.29c-0.191,0-0.387,0-0.579,0c0-0.097,0-0.196,0-0.289c-0.292,0-0.58,0-0.872,0c0-0.099,0-0.197,0-0.294
		c-0.581-0.189-1.159-0.386-1.737-0.576c0-0.1,0-0.189,0-0.289c-0.192,0-0.385,0-0.579,0c-0.193-0.295-0.387-0.582-0.58-0.873
		c-0.192,0-0.387,0-0.582,0c-0.096-0.189-0.191-0.386-0.288-0.575c-1.133-1.07-2.415-2.055-2.61-4.058
		c-2.312-0.032-4.565,0.595-6.373,1.162c-4.636,0.868-9.273,1.732-13.906,2.601c-0.464-1.241-0.305-3.508-0.291-5.212
		c0.194,0,0.386,0,0.58,0c-0.054-4.605,1.567-8.59,3.187-11.59c0.096-0.388,0.191-0.771,0.29-1.159
		c0.192-0.097,0.387-0.188,0.581-0.289c0.097-0.387,0.192-0.771,0.29-1.163c0.096,0,0.192,0,0.29,0
		c0.096-0.287,0.191-0.574,0.29-0.865c0.192-0.096,0.386-0.194,0.58-0.29c0-0.194,0-0.389,0-0.581
		c0.58-0.482,1.161-0.966,1.738-1.448c0-0.192,0-0.389,0-0.581c0.193-0.096,0.385-0.191,0.58-0.289c0-0.097,0-0.192,0-0.291
		c0.29-0.191,0.58-0.389,0.869-0.58c0-1.64,0-3.285,0-4.924c-0.507-0.56-0.38-2.711-0.289-3.768c0.26-3.009,0.371-6.985,1.159-9.562
		c0.291-1.836,0.581-3.673,0.87-5.506c0.87-2.607,1.739-5.218,2.608-7.825c0.097,0,0.193,0,0.29,0
		c0.096-0.384,0.192-0.771,0.291-1.158c0.096,0,0.191,0,0.29,0c0-0.29,0-0.58,0-0.868c0.097,0,0.193,0,0.292,0
		c0-0.196,0-0.389,0-0.581c0.098,0,0.194,0,0.291,0c0-0.191,0-0.384,0-0.579c0.193-0.096,0.387-0.194,0.58-0.292
		c0-0.29,0-0.58,0-0.867c0.193-0.096,0.387-0.195,0.58-0.292c0.193-0.579,0.389-1.159,0.579-1.739
		c0.192-0.096,0.388-0.192,0.582-0.29c0.096-0.389,0.192-0.773,0.289-1.158c0.193-0.098,0.386-0.193,0.581-0.292
		c0-0.193,0-0.387,0-0.579c0.098,0,0.194,0,0.29,0c0.096-0.291,0.192-0.581,0.291-0.872c0.195-0.097,0.387-0.194,0.579-0.291
		c0-0.192,0-0.385,0-0.58c0.291-0.192,0.581-0.388,0.872-0.579c0-0.192,0-0.385,0-0.582c0.482-0.384,0.964-0.77,1.449-1.159
		c0-0.192,0-0.384,0-0.579c0.193-0.095,0.386-0.192,0.578-0.291c0.641-0.676,1.451-1.315,1.74-2.317c0.193,0,0.386,0,0.581,0
		c0.772-0.871,1.545-1.74,2.318-2.608c0.193,0,0.386,0,0.579,0c0.195-0.293,0.386-0.581,0.579-0.871c0.196,0,0.388,0,0.582,0
		c0.19-0.29,0.386-0.581,0.577-0.871c0.195,0,0.389,0,0.58,0c1.232-0.831,1.721-1.917,3.768-2.027
		c0.277,0.436,1.295,1.188,1.737,1.45c0.193,0,0.387,0,0.58,0c0.095,0.192,0.193,0.386,0.286,0.577
		c0.295,0.097,0.581,0.193,0.87,0.289C72.21,5,72.406,5.288,72.6,5.58c0.191,0,0.386,0,0.579,0c0.387,0.48,0.771,0.965,1.158,1.448
		c0.191,0,0.386,0,0.581,0c0.287,0.388,0.576,0.773,0.868,1.16c0.769,0.676,1.544,1.352,2.315,2.028c0,0.193,0,0.385,0,0.579
		c0.58,0.484,1.161,0.965,1.738,1.45c3.843,5.335,6.866,11.186,9.274,17.963c0,0.385,0,0.772,0,1.159c0.096,0,0.19,0,0.286,0
		c0,0.385,0,0.772,0,1.16c0.101,0,0.195,0,0.29,0c0,0.387,0,0.773,0,1.159c0.102,0,0.194,0,0.293,0c0,0.386,0,0.773,0,1.159
		c0.095,0,0.192,0,0.29,0c0,0.483,0,0.968,0,1.449c0.097,0,0.19,0,0.29,0c0,0.484,0,0.968,0,1.449c0.097,0,0.191,0,0.292,0
		c0,0.581,0,1.16,0,1.741c0.095,0,0.19,0,0.287,0c0,0.872,0,1.741,0,2.607c0.099,0,0.193,0,0.291,0c0,1.061,0,2.125,0,3.188
		c0.877,3.111,0.016,7.822,0,11.01c0.871,0.772,1.739,1.544,2.606,2.318c0,0.192,0,0.387,0,0.58c0.29,0.193,0.581,0.386,0.87,0.579
		c0,0.192,0,0.388,0,0.581c0.287,0.193,0.579,0.387,0.868,0.579c0,0.193,0,0.388,0,0.577c0.193,0.102,0.388,0.193,0.579,0.294
		c0.194,0.577,0.391,1.155,0.58,1.735C99.236,67.873,100.353,71.914,100.398,78.609z"/>
	<path fill="#FFFFFF" stroke="#1E2A49" stroke-miterlimit="10" d="M40.713,74.552c1.836,0.015,3.272-0.439,4.636-0.867
		c4.251-0.773,8.5-1.544,12.749-2.32c0.229,2.513,2.076,3.843,3.477,5.22c0.194,0.286,0.387,0.577,0.581,0.863
		c0.192,0,0.385,0,0.58,0c0,0.1,0,0.198,0,0.296c0.385,0.095,0.771,0.189,1.159,0.289c0,0.092,0,0.191,0,0.287
		c0.581,0.099,1.158,0.191,1.738,0.29c0,0.097,0,0.196,0,0.291c1.933-0.095,3.864-0.194,5.795-0.291c0-0.099,0-0.191,0-0.29
		c0.577-0.195,1.159-0.387,1.739-0.576c0-0.095,0-0.195,0-0.295c0.192,0,0.388,0,0.577,0c0-0.091,0-0.191,0-0.286
		c0.684-0.554,1.066-1.173,2.028-1.449c0.415-1.686,1.788-2.06,2.028-4.059c1.656,0.01,3.092,0.479,4.346,0.87
		c1.448,0.192,2.896,0.387,4.344,0.577c0,0.099,0,0.195,0,0.294c2.896,0.479,5.795,0.964,8.693,1.449
		c0.064-4.8-1.242-8.528-2.897-11.594c-0.097-0.384-0.19-0.769-0.29-1.159c-0.191-0.096-0.387-0.195-0.578-0.287
		c-0.096-0.388-0.193-0.776-0.292-1.162c-0.285-0.191-0.578-0.386-0.864-0.58c0-0.194,0-0.388,0-0.58
		c-0.291-0.193-0.582-0.387-0.872-0.578c-0.481-0.582-0.966-1.161-1.449-1.741c-0.289-0.192-0.578-0.387-0.87-0.579
		c0-0.676,0-1.354,0-2.028c0.593-0.656,0.292-2.892,0.292-4.058c0-3.927,0.052-7.685-0.871-10.72c0-0.482,0-0.967,0-1.448
		c-0.092,0-0.192,0-0.287,0c0-0.483,0-0.966,0-1.449c-0.1,0-0.194,0-0.292,0c-0.095-0.773-0.19-1.545-0.29-2.316
		c-0.096,0-0.191,0-0.289,0c0-0.291,0-0.581,0-0.872c-0.097,0-0.191,0-0.293,0c0-0.385,0-0.772,0-1.16
		c-1.253-2.992-2.51-5.988-3.765-8.982c-0.19-0.098-0.386-0.193-0.577-0.29c-0.097-0.385-0.189-0.774-0.291-1.16
		c-0.191-0.096-0.387-0.192-0.578-0.288c-0.097-0.387-0.191-0.773-0.29-1.161c-0.098,0-0.192,0-0.287,0
		c-0.1-0.288-0.196-0.58-0.294-0.869c-0.191-0.097-0.387-0.192-0.578-0.291c0-0.192,0-0.385,0-0.58
		c-0.192-0.096-0.385-0.192-0.58-0.29c-0.097-0.29-0.191-0.578-0.286-0.872c-0.296-0.192-0.582-0.384-0.873-0.578
		c0-0.193,0-0.387,0-0.58c-0.678-0.579-1.351-1.161-2.023-1.74c0-0.191,0-0.385,0-0.58c-0.102,0-0.195,0-0.293,0
		c-0.192-0.291-0.386-0.579-0.58-0.868c-0.191,0-0.387,0-0.576,0c-0.483-0.581-0.97-1.16-1.449-1.74c-0.194,0-0.389,0-0.581,0
		c-0.287-0.386-0.579-0.771-0.868-1.158c-0.192,0-0.387,0-0.576,0c0-0.097,0-0.193,0-0.29c-0.196,0-0.392,0-0.58,0
		c-0.097-0.193-0.193-0.387-0.291-0.58c-0.192,0-0.387,0-0.58,0c0-0.096,0-0.193,0-0.292c-0.583,0.168-0.251-0.034-0.579,0.292
		c-0.644,0.179-0.729,0.24-1.158,0.58c0,0.096,0,0.192,0,0.29c-0.29,0.095-0.581,0.192-0.868,0.29
		c-0.099,0.194-0.193,0.387-0.29,0.579c-0.192,0-0.389,0-0.581,0c-0.385,0.482-0.771,0.966-1.158,1.449c-0.192,0-0.388,0-0.58,0
		c-0.194,0.289-0.386,0.581-0.581,0.87c-0.676,0.579-1.351,1.159-2.027,1.738c0,0.195,0,0.389,0,0.582
		c-0.483,0.383-0.965,0.772-1.45,1.159c0,0.192,0,0.385,0,0.578c-0.291,0.194-0.58,0.39-0.869,0.58
		c-0.096,0.291-0.192,0.58-0.291,0.872c-0.191,0.096-0.386,0.194-0.579,0.289c0,0.192,0,0.387,0,0.579
		c-0.193,0.096-0.385,0.194-0.581,0.292c-0.095,0.288-0.191,0.579-0.29,0.867c-0.097,0-0.192,0-0.292,0
		c-0.095,0.39-0.191,0.773-0.291,1.161c-0.192,0.095-0.386,0.193-0.578,0.292c-0.096,0.386-0.191,0.771-0.291,1.159
		c-0.192,0.095-0.387,0.192-0.58,0.291c0,0.289,0,0.578,0,0.868c-0.096,0-0.191,0-0.289,0c0,0.193,0,0.387,0,0.579
		c-0.096,0-0.192,0-0.291,0c-0.193,0.582-0.387,1.161-0.581,1.741c-0.096,0-0.193,0-0.291,0c-0.096,0.481-0.193,0.963-0.29,1.449
		c-0.097,0-0.194,0-0.29,0c0,0.192,0,0.384,0,0.58c-0.096,0-0.192,0-0.291,0c-0.771,2.705-1.544,5.409-2.317,8.112
		c-0.095,1.256-0.192,2.511-0.291,3.768c-1.153,4.024-0.477,10.626-0.29,15.067C44.545,59.002,40.8,67.208,40.713,74.552z"/>
	<path fill="#1E2A49" stroke="#1E2A49" stroke-miterlimit="10" d="M66.5,27.905c1.447,0.096,2.897,0.191,4.348,0.29
		c3.602,1.244,8.467,5.999,6.666,11.591c-0.098,0.677-0.196,1.351-0.296,2.029c-0.095,0-0.191,0-0.286,0
		c-0.1,0.386-0.192,0.773-0.291,1.159c-0.192,0.096-0.388,0.192-0.578,0.288c0,0.193,0,0.389,0,0.582
		c-0.29,0.193-0.579,0.386-0.87,0.578c0,0.192,0,0.389,0,0.581c-0.288,0.096-0.577,0.192-0.867,0.29
		c-0.194,0.29-0.386,0.579-0.581,0.872c-0.191,0-0.387,0-0.576,0c-0.1,0.192-0.195,0.385-0.292,0.578c-0.289,0-0.577,0-0.871,0
		c0,0.097,0,0.192,0,0.292c-0.191,0-0.386,0-0.576,0c0,0.096,0,0.193,0,0.292c-0.772,0.097-1.546,0.192-2.317,0.289
		c0,0.097,0,0.192,0,0.29c-1.28,0.363-3.021-0.329-3.766-0.579c-0.389,0-0.772,0-1.162,0c0-0.096,0-0.195,0-0.292
		c-0.386-0.097-0.77-0.191-1.157-0.292c0-0.096,0-0.19,0-0.29c-0.192,0-0.386,0-0.582,0c-2.151-1.37-5.309-5.828-4.345-9.271
		c0.098-0.966,0.192-1.932,0.291-2.896c0.097,0,0.194,0,0.291,0c0.191-0.581,0.386-1.16,0.581-1.74
		c0.192-0.096,0.386-0.192,0.579-0.291c0-0.191,0-0.388,0-0.581c0.483-0.384,0.965-0.771,1.449-1.159
		c0.195-0.288,0.387-0.579,0.58-0.867c0.386-0.098,0.775-0.195,1.161-0.292c0.095-0.193,0.19-0.387,0.291-0.579
		c0.287,0,0.577,0,0.868,0c0-0.097,0-0.193,0-0.29C64.956,28.176,65.925,28.401,66.5,27.905z"/>
	<path fill="#FFFFFF" stroke="#1E2A49" stroke-miterlimit="10" d="M67.08,31.96c0,0.097,0,0.193,0,0.29c-0.387,0-0.772,0-1.157,0
		c0,0.096,0,0.19,0,0.29c-0.39,0.097-0.772,0.192-1.162,0.291c0,0.097,0,0.192,0,0.292c-0.189,0-0.386,0-0.577,0
		c0,0.096,0,0.192,0,0.289c-0.483,0.388-0.966,0.771-1.448,1.16c-0.337,0.483-0.004,0.657-0.582,1.159
		c-0.105,1.372-0.415,1.983,0,3.185c0,0.388,0,0.773,0,1.159c0.097,0,0.191,0,0.291,0c0.278,1.14,0.973,1.676,1.739,2.32
		c0,0.097,0,0.193,0,0.292c0.191,0,0.388,0,0.577,0c0,0.095,0,0.192,0,0.29c0.358,0.275,0.56,0.215,0.87,0.577
		c0.667,0.02,2.498,0.312,2.606,0.293c0-0.097,0-0.193,0-0.293c0.678-0.095,1.354-0.191,2.031-0.289c0-0.097,0-0.193,0-0.29
		c0.19,0,0.386,0,0.579,0c0.096-0.193,0.19-0.387,0.287-0.581c2.14-1.458,2.396-2.741,2.316-6.373
		c-0.48-0.773-0.963-1.544-1.448-2.32c-0.657-0.616-1.726-0.766-2.314-1.449C68.818,32.154,67.947,32.059,67.08,31.96z"/>
	<path fill="#1E2A49" stroke="#1E2A49" stroke-miterlimit="10" d="M66.5,88.461c2.06-0.056,3.689,0.082,4.927,0.871
		c0.095,0.191,0.192,0.384,0.29,0.577c0.189,0,0.387,0,0.579,0c0.286,0.386,0.575,0.775,0.866,1.162c0.098,0,0.195,0,0.288,0
		c0,0.189,0,0.386,0,0.576c0.195,0.096,0.389,0.195,0.581,0.292c0,0.193,0,0.386,0,0.578c0.192,0.092,0.389,0.19,0.579,0.287
		c0,0.292,0,0.582,0,0.868c0.098,0,0.194,0,0.291,0c0,0.193,0,0.387,0,0.584c0.099,0,0.192,0,0.291,0
		c0.275,0.69,0.618,4.475,0.286,5.503c-0.096,0-0.19,0-0.286,0c0,0.39,0,0.771,0,1.154c-0.099,0-0.192,0-0.291,0
		c0,0.296,0,0.581,0,0.873c-0.097,0-0.193,0-0.291,0c0,0.287,0,0.576,0,0.871c-0.099,0-0.191,0-0.291,0c0,0.284,0,0.575,0,0.866
		c-0.097,0-0.19,0-0.289,0c-0.097,0.388-0.193,0.771-0.288,1.157c-0.1,0-0.194,0-0.294,0c0,0.29,0,0.577,0,0.872
		c-0.191,0.093-0.383,0.189-0.577,0.29c0,0.287,0,0.576,0,0.863c-0.191,0.103-0.387,0.199-0.576,0.294c0,0.191,0,0.387,0,0.576
		c-0.1,0-0.193,0-0.294,0c0,0.194,0,0.387,0,0.585c-0.097,0-0.189,0-0.286,0c-0.099,0.383-0.195,0.769-0.29,1.154
		c-0.194,0.1-0.39,0.196-0.579,0.295c0,0.191,0,0.383,0,0.578c-0.099,0-0.196,0-0.293,0c0,0.189,0,0.386,0,0.575
		c-0.287,0.195-0.579,0.386-0.867,0.579c-0.098,0.291-0.192,0.582-0.29,0.869c-0.098,0-0.193,0-0.288,0c0,0.193,0,0.388,0,0.584
		c-0.102,0-0.196,0-0.291,0c-0.101,0.288-0.193,0.577-0.291,0.864c-0.192,0.099-0.388,0.194-0.58,0.289c0,0.195,0,0.387,0,0.581
		c-0.097,0-0.192,0-0.291,0c0-0.097,0-0.196,0-0.286c-0.741-0.622-0.896-1.49-1.446-2.32c-0.195-0.099-0.388-0.191-0.581-0.292
		c-0.097-0.386-0.193-0.771-0.29-1.157c-0.191-0.099-0.388-0.199-0.581-0.291c0-0.194,0-0.387,0-0.577c-0.095,0-0.189,0-0.287,0
		c0-0.194,0-0.393,0-0.583c-0.099,0-0.192,0-0.291,0c0-0.195,0-0.387,0-0.576c-0.097,0-0.192,0-0.291,0c0-0.195,0-0.387,0-0.581
		c-0.097,0-0.193,0-0.291,0c-0.097-0.387-0.191-0.771-0.287-1.162c-0.194-0.093-0.389-0.19-0.579-0.288
		c-0.097-0.479-0.195-0.966-0.292-1.448c-0.097,0-0.191,0-0.291,0c0-0.19,0-0.387,0-0.581c-0.096,0-0.195,0-0.291,0
		c-0.096-0.386-0.193-0.769-0.291-1.156c-0.096,0-0.194,0-0.291,0c0-0.291,0-0.576,0-0.87c-0.096,0-0.192,0-0.29,0
		c-0.652-1.657-1.261-5.5-0.58-7.533c0.097,0,0.193,0,0.291,0c0-0.386,0-0.774,0-1.162c0.096,0,0.195,0,0.29,0
		c0.096-0.382,0.195-0.767,0.29-1.154c0.195-0.099,0.387-0.193,0.581-0.294c0-0.19,0-0.384,0-0.577
		c0.58-0.483,1.157-0.963,1.739-1.446c0.19-0.292,0.386-0.577,0.577-0.869c0.485-0.334,0.659-0.006,1.162-0.58
		c0.386,0,0.772,0,1.156,0C66.5,88.652,66.5,88.56,66.5,88.461z"/>
	<path fill="#FFFFFF" stroke="#1E2A49" stroke-miterlimit="10" d="M68.236,107.297c0.101-0.29,0.195-0.584,0.292-0.87
		c0.098,0,0.19,0,0.29,0c0-0.189,0-0.387,0-0.577c0.097,0,0.191,0,0.291,0c0.096-0.391,0.191-0.774,0.29-1.162
		c0.097,0,0.191,0,0.289,0c0-0.189,0-0.388,0-0.577c0.098,0,0.194,0,0.289,0c0.195-0.58,0.39-1.159,0.578-1.74
		c0.099,0,0.193,0,0.292,0c0.096-0.576,0.192-1.154,0.288-1.738c0.1,0,0.191,0,0.293,0c0-0.389,0-0.769,0-1.156
		c0.121-0.405,0.565-1.765,0.29-2.605c-0.097,0-0.195,0-0.29,0c0-0.287,0-0.581,0-0.871c-0.102,0-0.193,0-0.293,0
		c0-0.191,0-0.39,0-0.576c-0.096,0-0.192,0-0.288,0c-0.099-0.389-0.193-0.772-0.292-1.158c-0.321-0.46-2.318-1.543-3.475-1.164
		c0,0.101,0,0.195,0,0.292c-0.292,0-0.58,0-0.868,0c-0.29,0.385-0.582,0.771-0.872,1.157c-0.097,0-0.19,0-0.29,0
		c0,0.189,0,0.387,0,0.579c-0.097,0-0.192,0-0.291,0c-0.095,0.391-0.189,0.773-0.288,1.16c-0.099,0-0.192,0-0.29,0
		c-0.763,2.149,1.148,6.722,1.74,7.826c0.095,0,0.19,0,0.289,0c0,0.191,0,0.387,0,0.577c0.097,0,0.191,0,0.287,0
		c0.263,0.489,0.823,2.404,1.16,2.609C67.853,107.297,68.045,107.297,68.236,107.297z"/>
</g>
</svg>
